' WORK IN PROGRESS
@startuml targetCtrlApp_cd
scale 1.5
skinparam {
    monochrome true
    dpi 300
    padding 2
    packageStyle rectangle
    packageStyle frame
    shadowing false
    classAttributeIconSize 0
}
hide circle
hide empty members

frame "cd targetCtrlApp" {

    class main <<utility>> {
        initMain(void): void
        generateNewSetpoint(void): void
    }

    class MotorControl <<controller>> {
        motorControlInit(void) : void
        motorChangeSetPoint(uint16_t newSetPoint) : void
        writeKillMotor(bool killValue) : void
        motorSetDirection(int8_t motorDirectionNew): void
        getPositionControl(uint16_t distance): int
    }

    class SonarDriver <<controller>> {
        sonarInit(void) : void
        sonarGetPosition(uint16_t sampleTimeUs) : uint16_t
    }
}

main -- MotorControl
main -- SonarDriver

@enduml